<?xml version="1.0" encoding="UTF-8" standalone="no"?>
<!-- Created with Inkscape (http://www.inkscape.org/) -->

<svg
   xmlns:dc="http://purl.org/dc/elements/1.1/"
   xmlns:cc="http://creativecommons.org/ns#"
   xmlns:rdf="http://www.w3.org/1999/02/22-rdf-syntax-ns#"
   xmlns:svg="http://www.w3.org/2000/svg"
   xmlns="http://www.w3.org/2000/svg"
   xmlns:sodipodi="http://sodipodi.sourceforge.net/DTD/sodipodi-0.dtd"
   xmlns:inkscape="http://www.inkscape.org/namespaces/inkscape"
   width="14.637124mm"
   height="14.67872mm"
   viewBox="0 0 14.637124 14.67872"
   version="1.1"
   id="svg8"
   inkscape:version="0.92.3 (2405546, 2018-03-11)"
   sodipodi:docname="ISMlogo.svg">
  <defs
     id="defs2">
    <clipPath
       id="clipPath47"
       clipPathUnits="userSpaceOnUse">
      <path
         inkscape:connector-curvature="0"
         id="path45"
         d="M 0,0 H 74 V 74.117 H 0 Z" />
    </clipPath>
    <clipPath
       id="clipPath261"
       clipPathUnits="userSpaceOnUse">
      <path
         style="clip-rule:evenodd"
         inkscape:connector-curvature="0"
         id="path259"
         d="m 57.001,416.11 h 205.01 v 10.32 H 57.001 Z" />
    </clipPath>
    <clipPath
       id="clipPath269"
       clipPathUnits="userSpaceOnUse">
      <path
         style="clip-rule:evenodd"
         inkscape:connector-curvature="0"
         id="path267"
         d="m 57,416.11 h 205.01 v 10.32 H 57 Z" />
    </clipPath>
    <clipPath
       id="clipPath281"
       clipPathUnits="userSpaceOnUse">
      <path
         style="clip-rule:evenodd"
         inkscape:connector-curvature="0"
         id="path279"
         d="m 57,416.11 h 205.01 v 10.32 H 57 Z" />
    </clipPath>
    <clipPath
       id="clipPath293"
       clipPathUnits="userSpaceOnUse">
      <path
         style="clip-rule:evenodd"
         inkscape:connector-curvature="0"
         id="path291"
         d="m 57,416.11 h 205.01 v 10.32 H 57 Z" />
    </clipPath>
    <clipPath
       id="clipPath305"
       clipPathUnits="userSpaceOnUse">
      <path
         style="clip-rule:evenodd"
         inkscape:connector-curvature="0"
         id="path303"
         d="m 57,416.11 h 205.01 v 10.32 H 57 Z" />
    </clipPath>
    <clipPath
       id="clipPath317"
       clipPathUnits="userSpaceOnUse">
      <path
         style="clip-rule:evenodd"
         inkscape:connector-curvature="0"
         id="path315"
         d="m 57,416.11 h 205.01 v 10.32 H 57 Z" />
    </clipPath>
    <clipPath
       id="clipPath325"
       clipPathUnits="userSpaceOnUse">
      <path
         style="clip-rule:evenodd"
         inkscape:connector-curvature="0"
         id="path323"
         d="m 262.61,416.11 h 148.35 v 10.32 H 262.61 Z" />
    </clipPath>
    <clipPath
       id="clipPath333"
       clipPathUnits="userSpaceOnUse">
      <path
         style="clip-rule:evenodd"
         inkscape:connector-curvature="0"
         id="path331"
         d="m 262.61,416.11 h 148.34 v 10.32 H 262.61 Z" />
    </clipPath>
    <clipPath
       id="clipPath345"
       clipPathUnits="userSpaceOnUse">
      <path
         style="clip-rule:evenodd"
         inkscape:connector-curvature="0"
         id="path343"
         d="m 262.61,416.11 h 148.34 v 10.32 H 262.61 Z" />
    </clipPath>
    <clipPath
       id="clipPath353"
       clipPathUnits="userSpaceOnUse">
      <path
         style="clip-rule:evenodd"
         inkscape:connector-curvature="0"
         id="path351"
         d="m 411.44,416.11 h 132.38 v 10.32 H 411.44 Z" />
    </clipPath>
    <clipPath
       id="clipPath361"
       clipPathUnits="userSpaceOnUse">
      <path
         style="clip-rule:evenodd"
         inkscape:connector-curvature="0"
         id="path359"
         d="m 411.43,416.11 h 132.38 v 10.32 H 411.43 Z" />
    </clipPath>
    <clipPath
       id="clipPath373"
       clipPathUnits="userSpaceOnUse">
      <path
         style="clip-rule:evenodd"
         inkscape:connector-curvature="0"
         id="path371"
         d="m 411.43,416.11 h 132.38 v 10.32 H 411.43 Z" />
    </clipPath>
    <clipPath
       id="clipPath407"
       clipPathUnits="userSpaceOnUse">
      <path
         style="clip-rule:evenodd"
         inkscape:connector-curvature="0"
         id="path405"
         d="m 57.001,363.88 h 205.01 v 51.75 H 57.001 Z" />
    </clipPath>
    <clipPath
       id="clipPath415"
       clipPathUnits="userSpaceOnUse">
      <path
         style="clip-rule:evenodd"
         inkscape:connector-curvature="0"
         id="path413"
         d="m 57,363.89 h 205.01 v 51.744 H 57 Z" />
    </clipPath>
    <clipPath
       id="clipPath427"
       clipPathUnits="userSpaceOnUse">
      <path
         style="clip-rule:evenodd"
         inkscape:connector-curvature="0"
         id="path425"
         d="m 57,363.89 h 205.01 v 51.744 H 57 Z" />
    </clipPath>
    <clipPath
       id="clipPath439"
       clipPathUnits="userSpaceOnUse">
      <path
         style="clip-rule:evenodd"
         inkscape:connector-curvature="0"
         id="path437"
         d="m 57,363.89 h 205.01 v 51.744 H 57 Z" />
    </clipPath>
    <clipPath
       id="clipPath451"
       clipPathUnits="userSpaceOnUse">
      <path
         style="clip-rule:evenodd"
         inkscape:connector-curvature="0"
         id="path449"
         d="m 57,363.89 h 205.01 v 51.744 H 57 Z" />
    </clipPath>
    <clipPath
       id="clipPath459"
       clipPathUnits="userSpaceOnUse">
      <path
         style="clip-rule:evenodd"
         inkscape:connector-curvature="0"
         id="path457"
         d="m 57,363.89 h 205.01 v 51.744 H 57 Z" />
    </clipPath>
    <clipPath
       id="clipPath471"
       clipPathUnits="userSpaceOnUse">
      <path
         style="clip-rule:evenodd"
         inkscape:connector-curvature="0"
         id="path469"
         d="m 57,363.89 h 205.01 v 51.744 H 57 Z" />
    </clipPath>
    <clipPath
       id="clipPath483"
       clipPathUnits="userSpaceOnUse">
      <path
         style="clip-rule:evenodd"
         inkscape:connector-curvature="0"
         id="path481"
         d="m 57,363.89 h 205.01 v 51.744 H 57 Z" />
    </clipPath>
    <clipPath
       id="clipPath495"
       clipPathUnits="userSpaceOnUse">
      <path
         style="clip-rule:evenodd"
         inkscape:connector-curvature="0"
         id="path493"
         d="m 57,363.89 h 205.01 v 51.744 H 57 Z" />
    </clipPath>
    <clipPath
       id="clipPath507"
       clipPathUnits="userSpaceOnUse">
      <path
         style="clip-rule:evenodd"
         inkscape:connector-curvature="0"
         id="path505"
         d="m 57,363.89 h 205.01 v 51.744 H 57 Z" />
    </clipPath>
    <clipPath
       id="clipPath515"
       clipPathUnits="userSpaceOnUse">
      <path
         style="clip-rule:evenodd"
         inkscape:connector-curvature="0"
         id="path513"
         d="m 262.61,363.88 h 148.35 v 51.75 H 262.61 Z" />
    </clipPath>
    <clipPath
       id="clipPath523"
       clipPathUnits="userSpaceOnUse">
      <path
         style="clip-rule:evenodd"
         inkscape:connector-curvature="0"
         id="path521"
         d="m 262.61,363.89 h 148.34 v 51.744 H 262.61 Z" />
    </clipPath>
    <clipPath
       id="clipPath535"
       clipPathUnits="userSpaceOnUse">
      <path
         style="clip-rule:evenodd"
         inkscape:connector-curvature="0"
         id="path533"
         d="m 262.61,363.89 h 148.34 v 51.744 H 262.61 Z" />
    </clipPath>
    <clipPath
       id="clipPath547"
       clipPathUnits="userSpaceOnUse">
      <path
         style="clip-rule:evenodd"
         inkscape:connector-curvature="0"
         id="path545"
         d="m 262.61,363.89 h 148.34 v 51.744 H 262.61 Z" />
    </clipPath>
    <clipPath
       id="clipPath559"
       clipPathUnits="userSpaceOnUse">
      <path
         style="clip-rule:evenodd"
         inkscape:connector-curvature="0"
         id="path557"
         d="m 262.61,363.89 h 148.34 v 51.744 H 262.61 Z" />
    </clipPath>
    <clipPath
       id="clipPath571"
       clipPathUnits="userSpaceOnUse">
      <path
         style="clip-rule:evenodd"
         inkscape:connector-curvature="0"
         id="path569"
         d="m 262.61,363.89 h 148.34 v 51.744 H 262.61 Z" />
    </clipPath>
    <clipPath
       id="clipPath583"
       clipPathUnits="userSpaceOnUse">
      <path
         style="clip-rule:evenodd"
         inkscape:connector-curvature="0"
         id="path581"
         d="m 262.61,363.89 h 148.34 v 51.744 H 262.61 Z" />
    </clipPath>
    <clipPath
       id="clipPath595"
       clipPathUnits="userSpaceOnUse">
      <path
         style="clip-rule:evenodd"
         inkscape:connector-curvature="0"
         id="path593"
         d="m 262.61,363.89 h 148.34 v 51.744 H 262.61 Z" />
    </clipPath>
    <clipPath
       id="clipPath607"
       clipPathUnits="userSpaceOnUse">
      <path
         style="clip-rule:evenodd"
         inkscape:connector-curvature="0"
         id="path605"
         d="m 262.61,363.89 h 148.34 v 51.744 H 262.61 Z" />
    </clipPath>
    <clipPath
       id="clipPath615"
       clipPathUnits="userSpaceOnUse">
      <path
         style="clip-rule:evenodd"
         inkscape:connector-curvature="0"
         id="path613"
         d="m 411.44,363.88 h 132.38 v 51.75 H 411.44 Z" />
    </clipPath>
    <clipPath
       id="clipPath623"
       clipPathUnits="userSpaceOnUse">
      <path
         style="clip-rule:evenodd"
         inkscape:connector-curvature="0"
         id="path621"
         d="m 411.43,363.89 h 132.38 v 51.744 H 411.43 Z" />
    </clipPath>
    <clipPath
       id="clipPath635"
       clipPathUnits="userSpaceOnUse">
      <path
         style="clip-rule:evenodd"
         inkscape:connector-curvature="0"
         id="path633"
         d="m 411.43,363.89 h 132.38 v 51.744 H 411.43 Z" />
    </clipPath>
    <clipPath
       id="clipPath665"
       clipPathUnits="userSpaceOnUse">
      <path
         style="clip-rule:evenodd"
         inkscape:connector-curvature="0"
         id="path663"
         d="m 57.001,311.56 h 205.01 v 51.72 H 57.001 Z" />
    </clipPath>
    <clipPath
       id="clipPath673"
       clipPathUnits="userSpaceOnUse">
      <path
         style="clip-rule:evenodd"
         inkscape:connector-curvature="0"
         id="path671"
         d="m 57,311.57 h 205.01 v 51.72 H 57 Z" />
    </clipPath>
    <clipPath
       id="clipPath685"
       clipPathUnits="userSpaceOnUse">
      <path
         style="clip-rule:evenodd"
         inkscape:connector-curvature="0"
         id="path683"
         d="m 57,311.57 h 205.01 v 51.72 H 57 Z" />
    </clipPath>
    <clipPath
       id="clipPath697"
       clipPathUnits="userSpaceOnUse">
      <path
         style="clip-rule:evenodd"
         inkscape:connector-curvature="0"
         id="path695"
         d="m 57,311.57 h 205.01 v 51.72 H 57 Z" />
    </clipPath>
    <clipPath
       id="clipPath709"
       clipPathUnits="userSpaceOnUse">
      <path
         style="clip-rule:evenodd"
         inkscape:connector-curvature="0"
         id="path707"
         d="m 57,311.57 h 205.01 v 51.72 H 57 Z" />
    </clipPath>
    <clipPath
       id="clipPath717"
       clipPathUnits="userSpaceOnUse">
      <path
         style="clip-rule:evenodd"
         inkscape:connector-curvature="0"
         id="path715"
         d="m 57,311.57 h 205.01 v 51.72 H 57 Z" />
    </clipPath>
    <clipPath
       id="clipPath729"
       clipPathUnits="userSpaceOnUse">
      <path
         style="clip-rule:evenodd"
         inkscape:connector-curvature="0"
         id="path727"
         d="m 57,311.57 h 205.01 v 51.72 H 57 Z" />
    </clipPath>
    <clipPath
       id="clipPath741"
       clipPathUnits="userSpaceOnUse">
      <path
         style="clip-rule:evenodd"
         inkscape:connector-curvature="0"
         id="path739"
         d="m 57,311.57 h 205.01 v 51.72 H 57 Z" />
    </clipPath>
    <clipPath
       id="clipPath753"
       clipPathUnits="userSpaceOnUse">
      <path
         style="clip-rule:evenodd"
         inkscape:connector-curvature="0"
         id="path751"
         d="m 57,311.57 h 205.01 v 51.72 H 57 Z" />
    </clipPath>
    <clipPath
       id="clipPath765"
       clipPathUnits="userSpaceOnUse">
      <path
         style="clip-rule:evenodd"
         inkscape:connector-curvature="0"
         id="path763"
         d="m 57,311.57 h 205.01 v 51.72 H 57 Z" />
    </clipPath>
    <clipPath
       id="clipPath777"
       clipPathUnits="userSpaceOnUse">
      <path
         style="clip-rule:evenodd"
         inkscape:connector-curvature="0"
         id="path775"
         d="m 57,311.57 h 205.01 v 51.72 H 57 Z" />
    </clipPath>
    <clipPath
       id="clipPath785"
       clipPathUnits="userSpaceOnUse">
      <path
         style="clip-rule:evenodd"
         inkscape:connector-curvature="0"
         id="path783"
         d="m 262.61,311.56 h 148.35 v 51.72 H 262.61 Z" />
    </clipPath>
    <clipPath
       id="clipPath793"
       clipPathUnits="userSpaceOnUse">
      <path
         style="clip-rule:evenodd"
         inkscape:connector-curvature="0"
         id="path791"
         d="m 262.61,311.57 h 148.34 v 51.72 H 262.61 Z" />
    </clipPath>
    <clipPath
       id="clipPath805"
       clipPathUnits="userSpaceOnUse">
      <path
         style="clip-rule:evenodd"
         inkscape:connector-curvature="0"
         id="path803"
         d="m 262.61,311.57 h 148.34 v 51.72 H 262.61 Z" />
    </clipPath>
    <clipPath
       id="clipPath817"
       clipPathUnits="userSpaceOnUse">
      <path
         style="clip-rule:evenodd"
         inkscape:connector-curvature="0"
         id="path815"
         d="m 262.61,311.57 h 148.34 v 51.72 H 262.61 Z" />
    </clipPath>
    <clipPath
       id="clipPath829"
       clipPathUnits="userSpaceOnUse">
      <path
         style="clip-rule:evenodd"
         inkscape:connector-curvature="0"
         id="path827"
         d="m 262.61,311.57 h 148.34 v 51.72 H 262.61 Z" />
    </clipPath>
    <clipPath
       id="clipPath841"
       clipPathUnits="userSpaceOnUse">
      <path
         style="clip-rule:evenodd"
         inkscape:connector-curvature="0"
         id="path839"
         d="m 262.61,311.57 h 148.34 v 51.72 H 262.61 Z" />
    </clipPath>
    <clipPath
       id="clipPath853"
       clipPathUnits="userSpaceOnUse">
      <path
         style="clip-rule:evenodd"
         inkscape:connector-curvature="0"
         id="path851"
         d="m 262.61,311.57 h 148.34 v 51.72 H 262.61 Z" />
    </clipPath>
    <clipPath
       id="clipPath865"
       clipPathUnits="userSpaceOnUse">
      <path
         style="clip-rule:evenodd"
         inkscape:connector-curvature="0"
         id="path863"
         d="m 262.61,311.57 h 148.34 v 51.72 H 262.61 Z" />
    </clipPath>
    <clipPath
       id="clipPath877"
       clipPathUnits="userSpaceOnUse">
      <path
         style="clip-rule:evenodd"
         inkscape:connector-curvature="0"
         id="path875"
         d="m 262.61,311.57 h 148.34 v 51.72 H 262.61 Z" />
    </clipPath>
    <clipPath
       id="clipPath889"
       clipPathUnits="userSpaceOnUse">
      <path
         style="clip-rule:evenodd"
         inkscape:connector-curvature="0"
         id="path887"
         d="m 262.61,311.57 h 148.34 v 51.72 H 262.61 Z" />
    </clipPath>
    <clipPath
       id="clipPath897"
       clipPathUnits="userSpaceOnUse">
      <path
         style="clip-rule:evenodd"
         inkscape:connector-curvature="0"
         id="path895"
         d="m 411.44,311.56 h 132.38 v 51.72 H 411.44 Z" />
    </clipPath>
    <clipPath
       id="clipPath905"
       clipPathUnits="userSpaceOnUse">
      <path
         style="clip-rule:evenodd"
         inkscape:connector-curvature="0"
         id="path903"
         d="m 411.43,311.57 h 132.38 v 51.72 H 411.43 Z" />
    </clipPath>
    <clipPath
       id="clipPath917"
       clipPathUnits="userSpaceOnUse">
      <path
         style="clip-rule:evenodd"
         inkscape:connector-curvature="0"
         id="path915"
         d="m 411.43,311.57 h 132.38 v 51.72 H 411.43 Z" />
    </clipPath>
    <clipPath
       id="clipPath947"
       clipPathUnits="userSpaceOnUse">
      <path
         style="clip-rule:evenodd"
         inkscape:connector-curvature="0"
         id="path945"
         d="m 57.001,269.68 h 205.01 v 41.4 H 57.001 Z" />
    </clipPath>
    <clipPath
       id="clipPath955"
       clipPathUnits="userSpaceOnUse">
      <path
         style="clip-rule:evenodd"
         inkscape:connector-curvature="0"
         id="path953"
         d="m 57,269.69 h 205.01 v 41.4 H 57 Z" />
    </clipPath>
    <clipPath
       id="clipPath967"
       clipPathUnits="userSpaceOnUse">
      <path
         style="clip-rule:evenodd"
         inkscape:connector-curvature="0"
         id="path965"
         d="m 57,269.69 h 205.01 v 41.4 H 57 Z" />
    </clipPath>
    <clipPath
       id="clipPath979"
       clipPathUnits="userSpaceOnUse">
      <path
         style="clip-rule:evenodd"
         inkscape:connector-curvature="0"
         id="path977"
         d="m 57,269.69 h 205.01 v 41.4 H 57 Z" />
    </clipPath>
    <clipPath
       id="clipPath991"
       clipPathUnits="userSpaceOnUse">
      <path
         style="clip-rule:evenodd"
         inkscape:connector-curvature="0"
         id="path989"
         d="m 57,269.69 h 205.01 v 41.4 H 57 Z" />
    </clipPath>
    <clipPath
       id="clipPath999"
       clipPathUnits="userSpaceOnUse">
      <path
         style="clip-rule:evenodd"
         inkscape:connector-curvature="0"
         id="path997"
         d="m 57,269.69 h 205.01 v 41.4 H 57 Z" />
    </clipPath>
    <clipPath
       id="clipPath1011"
       clipPathUnits="userSpaceOnUse">
      <path
         style="clip-rule:evenodd"
         inkscape:connector-curvature="0"
         id="path1009"
         d="m 57,269.69 h 205.01 v 41.4 H 57 Z" />
    </clipPath>
    <clipPath
       id="clipPath1023"
       clipPathUnits="userSpaceOnUse">
      <path
         style="clip-rule:evenodd"
         inkscape:connector-curvature="0"
         id="path1021"
         d="m 57,269.69 h 205.01 v 41.4 H 57 Z" />
    </clipPath>
    <clipPath
       id="clipPath1035"
       clipPathUnits="userSpaceOnUse">
      <path
         style="clip-rule:evenodd"
         inkscape:connector-curvature="0"
         id="path1033"
         d="m 57,269.69 h 205.01 v 41.4 H 57 Z" />
    </clipPath>
    <clipPath
       id="clipPath1047"
       clipPathUnits="userSpaceOnUse">
      <path
         style="clip-rule:evenodd"
         inkscape:connector-curvature="0"
         id="path1045"
         d="m 57,269.69 h 205.01 v 41.4 H 57 Z" />
    </clipPath>
    <clipPath
       id="clipPath1055"
       clipPathUnits="userSpaceOnUse">
      <path
         style="clip-rule:evenodd"
         inkscape:connector-curvature="0"
         id="path1053"
         d="m 262.61,269.68 h 148.35 v 41.4 H 262.61 Z" />
    </clipPath>
    <clipPath
       id="clipPath1063"
       clipPathUnits="userSpaceOnUse">
      <path
         style="clip-rule:evenodd"
         inkscape:connector-curvature="0"
         id="path1061"
         d="m 262.61,269.69 h 148.34 v 41.4 H 262.61 Z" />
    </clipPath>
    <clipPath
       id="clipPath1075"
       clipPathUnits="userSpaceOnUse">
      <path
         style="clip-rule:evenodd"
         inkscape:connector-curvature="0"
         id="path1073"
         d="m 262.61,269.69 h 148.34 v 41.4 H 262.61 Z" />
    </clipPath>
    <clipPath
       id="clipPath1087"
       clipPathUnits="userSpaceOnUse">
      <path
         style="clip-rule:evenodd"
         inkscape:connector-curvature="0"
         id="path1085"
         d="m 262.61,269.69 h 148.34 v 41.4 H 262.61 Z" />
    </clipPath>
    <clipPath
       id="clipPath1099"
       clipPathUnits="userSpaceOnUse">
      <path
         style="clip-rule:evenodd"
         inkscape:connector-curvature="0"
         id="path1097"
         d="m 262.61,269.69 h 148.34 v 41.4 H 262.61 Z" />
    </clipPath>
    <clipPath
       id="clipPath1111"
       clipPathUnits="userSpaceOnUse">
      <path
         style="clip-rule:evenodd"
         inkscape:connector-curvature="0"
         id="path1109"
         d="m 262.61,269.69 h 148.34 v 41.4 H 262.61 Z" />
    </clipPath>
    <clipPath
       id="clipPath1123"
       clipPathUnits="userSpaceOnUse">
      <path
         style="clip-rule:evenodd"
         inkscape:connector-curvature="0"
         id="path1121"
         d="m 262.61,269.69 h 148.34 v 41.4 H 262.61 Z" />
    </clipPath>
    <clipPath
       id="clipPath1131"
       clipPathUnits="userSpaceOnUse">
      <path
         style="clip-rule:evenodd"
         inkscape:connector-curvature="0"
         id="path1129"
         d="m 411.44,269.68 h 132.38 v 41.4 H 411.44 Z" />
    </clipPath>
    <clipPath
       id="clipPath1139"
       clipPathUnits="userSpaceOnUse">
      <path
         style="clip-rule:evenodd"
         inkscape:connector-curvature="0"
         id="path1137"
         d="m 411.43,269.69 h 132.38 v 41.4 H 411.43 Z" />
    </clipPath>
    <clipPath
       id="clipPath1151"
       clipPathUnits="userSpaceOnUse">
      <path
         style="clip-rule:evenodd"
         inkscape:connector-curvature="0"
         id="path1149"
         d="m 411.43,269.69 h 132.38 v 41.4 H 411.43 Z" />
    </clipPath>
    <clipPath
       id="clipPath1163"
       clipPathUnits="userSpaceOnUse">
      <path
         style="clip-rule:evenodd"
         inkscape:connector-curvature="0"
         id="path1161"
         d="m 411.43,269.69 h 132.38 v 41.4 H 411.43 Z" />
    </clipPath>
    <clipPath
       id="clipPath1175"
       clipPathUnits="userSpaceOnUse">
      <path
         style="clip-rule:evenodd"
         inkscape:connector-curvature="0"
         id="path1173"
         d="m 411.43,269.69 h 132.38 v 41.4 H 411.43 Z" />
    </clipPath>
    <clipPath
       id="clipPath1187"
       clipPathUnits="userSpaceOnUse">
      <path
         style="clip-rule:evenodd"
         inkscape:connector-curvature="0"
         id="path1185"
         d="m 411.43,269.69 h 132.38 v 41.4 H 411.43 Z" />
    </clipPath>
    <clipPath
       id="clipPath1199"
       clipPathUnits="userSpaceOnUse">
      <path
         style="clip-rule:evenodd"
         inkscape:connector-curvature="0"
         id="path1197"
         d="m 411.43,269.69 h 132.38 v 41.4 H 411.43 Z" />
    </clipPath>
    <clipPath
       id="clipPath1229"
       clipPathUnits="userSpaceOnUse">
      <path
         style="clip-rule:evenodd"
         inkscape:connector-curvature="0"
         id="path1227"
         d="m 57.001,248.44 h 205.01 V 269.2 H 57.001 Z" />
    </clipPath>
    <clipPath
       id="clipPath1237"
       clipPathUnits="userSpaceOnUse">
      <path
         style="clip-rule:evenodd"
         inkscape:connector-curvature="0"
         id="path1235"
         d="m 57,248.45 h 205.01 v 20.76 H 57 Z" />
    </clipPath>
    <clipPath
       id="clipPath1249"
       clipPathUnits="userSpaceOnUse">
      <path
         style="clip-rule:evenodd"
         inkscape:connector-curvature="0"
         id="path1247"
         d="m 57,248.45 h 205.01 v 20.76 H 57 Z" />
    </clipPath>
    <clipPath
       id="clipPath1261"
       clipPathUnits="userSpaceOnUse">
      <path
         style="clip-rule:evenodd"
         inkscape:connector-curvature="0"
         id="path1259"
         d="m 57,248.45 h 205.01 v 20.76 H 57 Z" />
    </clipPath>
    <clipPath
       id="clipPath1273"
       clipPathUnits="userSpaceOnUse">
      <path
         style="clip-rule:evenodd"
         inkscape:connector-curvature="0"
         id="path1271"
         d="m 57,248.45 h 205.01 v 20.76 H 57 Z" />
    </clipPath>
    <clipPath
       id="clipPath1281"
       clipPathUnits="userSpaceOnUse">
      <path
         style="clip-rule:evenodd"
         inkscape:connector-curvature="0"
         id="path1279"
         d="m 57,248.45 h 205.01 v 20.76 H 57 Z" />
    </clipPath>
    <clipPath
       id="clipPath1293"
       clipPathUnits="userSpaceOnUse">
      <path
         style="clip-rule:evenodd"
         inkscape:connector-curvature="0"
         id="path1291"
         d="m 57,248.45 h 205.01 v 20.76 H 57 Z" />
    </clipPath>
    <clipPath
       id="clipPath1305"
       clipPathUnits="userSpaceOnUse">
      <path
         style="clip-rule:evenodd"
         inkscape:connector-curvature="0"
         id="path1303"
         d="m 57,248.45 h 205.01 v 20.76 H 57 Z" />
    </clipPath>
    <clipPath
       id="clipPath1317"
       clipPathUnits="userSpaceOnUse">
      <path
         style="clip-rule:evenodd"
         inkscape:connector-curvature="0"
         id="path1315"
         d="m 57,248.45 h 205.01 v 20.76 H 57 Z" />
    </clipPath>
    <clipPath
       id="clipPath1325"
       clipPathUnits="userSpaceOnUse">
      <path
         style="clip-rule:evenodd"
         inkscape:connector-curvature="0"
         id="path1323"
         d="m 57,248.45 h 205.01 v 20.76 H 57 Z" />
    </clipPath>
    <clipPath
       id="clipPath1333"
       clipPathUnits="userSpaceOnUse">
      <path
         style="clip-rule:evenodd"
         inkscape:connector-curvature="0"
         id="path1331"
         d="M 262.61,248.44 H 410.96 V 269.2 H 262.61 Z" />
    </clipPath>
    <clipPath
       id="clipPath1341"
       clipPathUnits="userSpaceOnUse">
      <path
         style="clip-rule:evenodd"
         inkscape:connector-curvature="0"
         id="path1339"
         d="m 262.61,248.45 h 148.34 v 20.76 H 262.61 Z" />
    </clipPath>
    <clipPath
       id="clipPath1353"
       clipPathUnits="userSpaceOnUse">
      <path
         style="clip-rule:evenodd"
         inkscape:connector-curvature="0"
         id="path1351"
         d="m 262.61,248.45 h 148.34 v 20.76 H 262.61 Z" />
    </clipPath>
    <clipPath
       id="clipPath1365"
       clipPathUnits="userSpaceOnUse">
      <path
         style="clip-rule:evenodd"
         inkscape:connector-curvature="0"
         id="path1363"
         d="m 262.61,248.45 h 148.34 v 20.76 H 262.61 Z" />
    </clipPath>
    <clipPath
       id="clipPath1373"
       clipPathUnits="userSpaceOnUse">
      <path
         style="clip-rule:evenodd"
         inkscape:connector-curvature="0"
         id="path1371"
         d="M 411.44,248.44 H 543.82 V 269.2 H 411.44 Z" />
    </clipPath>
    <clipPath
       id="clipPath1381"
       clipPathUnits="userSpaceOnUse">
      <path
         style="clip-rule:evenodd"
         inkscape:connector-curvature="0"
         id="path1379"
         d="m 411.43,248.45 h 132.38 v 20.76 H 411.43 Z" />
    </clipPath>
    <clipPath
       id="clipPath1393"
       clipPathUnits="userSpaceOnUse">
      <path
         style="clip-rule:evenodd"
         inkscape:connector-curvature="0"
         id="path1391"
         d="m 411.43,248.45 h 132.38 v 20.76 H 411.43 Z" />
    </clipPath>
    <clipPath
       id="clipPath1405"
       clipPathUnits="userSpaceOnUse">
      <path
         style="clip-rule:evenodd"
         inkscape:connector-curvature="0"
         id="path1403"
         d="m 411.43,248.45 h 132.38 v 20.76 H 411.43 Z" />
    </clipPath>
    <clipPath
       id="clipPath1417"
       clipPathUnits="userSpaceOnUse">
      <path
         style="clip-rule:evenodd"
         inkscape:connector-curvature="0"
         id="path1415"
         d="m 411.43,248.45 h 132.38 v 20.76 H 411.43 Z" />
    </clipPath>
    <clipPath
       id="clipPath1447"
       clipPathUnits="userSpaceOnUse">
      <path
         style="clip-rule:evenodd"
         inkscape:connector-curvature="0"
         id="path1445"
         d="m 57.001,217 h 205.01 v 30.96 H 57.001 Z" />
    </clipPath>
    <clipPath
       id="clipPath1455"
       clipPathUnits="userSpaceOnUse">
      <path
         style="clip-rule:evenodd"
         inkscape:connector-curvature="0"
         id="path1453"
         d="m 57,217.01 h 205.01 v 30.96 H 57 Z" />
    </clipPath>
    <clipPath
       id="clipPath1467"
       clipPathUnits="userSpaceOnUse">
      <path
         style="clip-rule:evenodd"
         inkscape:connector-curvature="0"
         id="path1465"
         d="m 57,217.01 h 205.01 v 30.96 H 57 Z" />
    </clipPath>
    <clipPath
       id="clipPath1479"
       clipPathUnits="userSpaceOnUse">
      <path
         style="clip-rule:evenodd"
         inkscape:connector-curvature="0"
         id="path1477"
         d="m 57,217.01 h 205.01 v 30.96 H 57 Z" />
    </clipPath>
    <clipPath
       id="clipPath1491"
       clipPathUnits="userSpaceOnUse">
      <path
         style="clip-rule:evenodd"
         inkscape:connector-curvature="0"
         id="path1489"
         d="m 57,217.01 h 205.01 v 30.96 H 57 Z" />
    </clipPath>
    <clipPath
       id="clipPath1499"
       clipPathUnits="userSpaceOnUse">
      <path
         style="clip-rule:evenodd"
         inkscape:connector-curvature="0"
         id="path1497"
         d="m 57,217.01 h 205.01 v 30.96 H 57 Z" />
    </clipPath>
    <clipPath
       id="clipPath1511"
       clipPathUnits="userSpaceOnUse">
      <path
         style="clip-rule:evenodd"
         inkscape:connector-curvature="0"
         id="path1509"
         d="m 57,217.01 h 205.01 v 30.96 H 57 Z" />
    </clipPath>
    <clipPath
       id="clipPath1523"
       clipPathUnits="userSpaceOnUse">
      <path
         style="clip-rule:evenodd"
         inkscape:connector-curvature="0"
         id="path1521"
         d="m 57,217.01 h 205.01 v 30.96 H 57 Z" />
    </clipPath>
    <clipPath
       id="clipPath1535"
       clipPathUnits="userSpaceOnUse">
      <path
         style="clip-rule:evenodd"
         inkscape:connector-curvature="0"
         id="path1533"
         d="m 57,217.01 h 205.01 v 30.96 H 57 Z" />
    </clipPath>
    <clipPath
       id="clipPath1547"
       clipPathUnits="userSpaceOnUse">
      <path
         style="clip-rule:evenodd"
         inkscape:connector-curvature="0"
         id="path1545"
         d="m 57,217.01 h 205.01 v 30.96 H 57 Z" />
    </clipPath>
    <clipPath
       id="clipPath1555"
       clipPathUnits="userSpaceOnUse">
      <path
         style="clip-rule:evenodd"
         inkscape:connector-curvature="0"
         id="path1553"
         d="m 262.61,217 h 148.35 v 30.96 H 262.61 Z" />
    </clipPath>
    <clipPath
       id="clipPath1563"
       clipPathUnits="userSpaceOnUse">
      <path
         style="clip-rule:evenodd"
         inkscape:connector-curvature="0"
         id="path1561"
         d="m 262.61,217.01 h 148.34 v 30.96 H 262.61 Z" />
    </clipPath>
    <clipPath
       id="clipPath1575"
       clipPathUnits="userSpaceOnUse">
      <path
         style="clip-rule:evenodd"
         inkscape:connector-curvature="0"
         id="path1573"
         d="m 262.61,217.01 h 148.34 v 30.96 H 262.61 Z" />
    </clipPath>
    <clipPath
       id="clipPath1587"
       clipPathUnits="userSpaceOnUse">
      <path
         style="clip-rule:evenodd"
         inkscape:connector-curvature="0"
         id="path1585"
         d="m 262.61,217.01 h 148.34 v 30.96 H 262.61 Z" />
    </clipPath>
    <clipPath
       id="clipPath1599"
       clipPathUnits="userSpaceOnUse">
      <path
         style="clip-rule:evenodd"
         inkscape:connector-curvature="0"
         id="path1597"
         d="m 262.61,217.01 h 148.34 v 30.96 H 262.61 Z" />
    </clipPath>
    <clipPath
       id="clipPath1611"
       clipPathUnits="userSpaceOnUse">
      <path
         style="clip-rule:evenodd"
         inkscape:connector-curvature="0"
         id="path1609"
         d="m 262.61,217.01 h 148.34 v 30.96 H 262.61 Z" />
    </clipPath>
    <clipPath
       id="clipPath1623"
       clipPathUnits="userSpaceOnUse">
      <path
         style="clip-rule:evenodd"
         inkscape:connector-curvature="0"
         id="path1621"
         d="m 262.61,217.01 h 148.34 v 30.96 H 262.61 Z" />
    </clipPath>
    <clipPath
       id="clipPath1631"
       clipPathUnits="userSpaceOnUse">
      <path
         style="clip-rule:evenodd"
         inkscape:connector-curvature="0"
         id="path1629"
         d="m 411.44,217 h 132.38 v 30.96 H 411.44 Z" />
    </clipPath>
    <clipPath
       id="clipPath1639"
       clipPathUnits="userSpaceOnUse">
      <path
         style="clip-rule:evenodd"
         inkscape:connector-curvature="0"
         id="path1637"
         d="m 411.43,217.01 h 132.38 v 30.96 H 411.43 Z" />
    </clipPath>
    <clipPath
       id="clipPath1651"
       clipPathUnits="userSpaceOnUse">
      <path
         style="clip-rule:evenodd"
         inkscape:connector-curvature="0"
         id="path1649"
         d="m 411.43,217.01 h 132.38 v 30.96 H 411.43 Z" />
    </clipPath>
    <clipPath
       id="clipPath1663"
       clipPathUnits="userSpaceOnUse">
      <path
         style="clip-rule:evenodd"
         inkscape:connector-curvature="0"
         id="path1661"
         d="m 411.43,217.01 h 132.38 v 30.96 H 411.43 Z" />
    </clipPath>
    <clipPath
       id="clipPath1675"
       clipPathUnits="userSpaceOnUse">
      <path
         style="clip-rule:evenodd"
         inkscape:connector-curvature="0"
         id="path1673"
         d="m 411.43,217.01 h 132.38 v 30.96 H 411.43 Z" />
    </clipPath>
    <clipPath
       id="clipPath1687"
       clipPathUnits="userSpaceOnUse">
      <path
         style="clip-rule:evenodd"
         inkscape:connector-curvature="0"
         id="path1685"
         d="m 411.43,217.01 h 132.38 v 30.96 H 411.43 Z" />
    </clipPath>
    <clipPath
       id="clipPath1699"
       clipPathUnits="userSpaceOnUse">
      <path
         style="clip-rule:evenodd"
         inkscape:connector-curvature="0"
         id="path1697"
         d="m 411.43,217.01 h 132.38 v 30.96 H 411.43 Z" />
    </clipPath>
    <clipPath
       id="clipPath1711"
       clipPathUnits="userSpaceOnUse">
      <path
         style="clip-rule:evenodd"
         inkscape:connector-curvature="0"
         id="path1709"
         d="m 411.43,217.01 h 132.38 v 30.96 H 411.43 Z" />
    </clipPath>
    <clipPath
       id="clipPath47-3"
       clipPathUnits="userSpaceOnUse">
      <path
         inkscape:connector-curvature="0"
         id="path45-6"
         d="M 0,0 H 74 V 74.117 H 0 Z" />
    </clipPath>
  </defs>
  <sodipodi:namedview
     id="base"
     pagecolor="#ffffff"
     bordercolor="#666666"
     borderopacity="1.0"
     inkscape:pageopacity="0.0"
     inkscape:pageshadow="2"
     inkscape:zoom="9.9960754"
     inkscape:cx="35.34328"
     inkscape:cy="24.466232"
     inkscape:document-units="mm"
     inkscape:current-layer="g41"
     showgrid="false"
     fit-margin-top="0"
     fit-margin-left="0"
     fit-margin-right="0"
     fit-margin-bottom="0"
     inkscape:window-width="1920"
     inkscape:window-height="1016"
     inkscape:window-x="0"
     inkscape:window-y="27"
     inkscape:window-maximized="1" />
  <metadata
     id="metadata5">
    <rdf:RDF>
      <cc:Work
         rdf:about="">
        <dc:format>image/svg+xml</dc:format>
        <dc:type
           rdf:resource="http://purl.org/dc/dcmitype/StillImage" />
        <dc:title></dc:title>
      </cc:Work>
    </rdf:RDF>
  </metadata>
  <g
     inkscape:label="Layer 1"
     inkscape:groupmode="layer"
     id="layer1"
     transform="translate(-179.60355,-64.888258)">
    <g
       transform="matrix(0.19950952,0,0,-0.19943226,179.58165,79.647468)"
       id="g41">
      <g
         id="g3343">
        <g
           id="g43"
           clip-path="url(#clipPath47-3)">
          <path
             d="m 0.43902,0.73286 h 72.707 v 72.944 h -72.707 z"
             style="fill:#074085;fill-opacity:1;fill-rule:evenodd;stroke:none"
             id="path49"
             inkscape:connector-curvature="0" />
          <path
             d="m 0.43902,0.73286 h 72.707 v 72.944 h -72.707 z"
             style="fill:none;stroke:#ffffff;stroke-width:0.65854001;stroke-linecap:butt;stroke-linejoin:round;stroke-miterlimit:10;stroke-dasharray:none;stroke-opacity:1"
             id="path51"
             inkscape:connector-curvature="0" />
          <path
             d="m 12.268,25.259 h 5.756 1.708 v 5.497 h -1.708 v 12.067 h 1.708 v 5.839 h -9.171 v -5.839 h 1.707 V 30.756 h -1.707 v -5.497 z"
             style="fill:#ffffff;fill-opacity:1;fill-rule:evenodd;stroke:none"
             id="path53"
             inkscape:connector-curvature="0" />
          <path
             d="m 39.829,25.259 h 5.756 1.61 v 5.497 h -1.61 v 8.916 l 4.878,-6.425 4.854,6.425 v -8.916 h -1.463 v -5.497 h 1.463 5.781 1.926 v 5.497 h -1.926 v 12.067 h 1.78 v 5.839 h -7.561 l -4.854,-6.425 -4.878,6.425 h -7.536 v -5.839 h 1.78 V 30.756 h -1.78 v -5.497 z"
             style="fill:#ffffff;fill-opacity:1;fill-rule:evenodd;stroke:none"
             id="path55"
             inkscape:connector-curvature="0" />
          <path
             d="m 31.463,48.662 h 4.561 v -5.839 h -4.39 v 0.074 L 31.61,42.97 v 0.073 l -0.025,0.074 -0.024,0.073 -0.024,0.073 -0.025,0.073 -0.024,0.074 -0.073,0.146 -0.074,0.122 -0.024,0.049 -0.049,0.049 -0.024,0.049 -0.049,0.049 -0.097,0.146 -0.122,0.147 -0.049,0.073 -0.073,0.049 -0.049,0.073 -0.049,0.049 -0.073,0.049 -0.049,0.049 -0.073,0.049 -0.073,0.049 -0.073,0.049 -0.074,0.024 -0.097,0.049 -0.073,0.049 -0.269,0.073 -0.243,0.073 -0.244,0.049 -0.244,0.025 H 28.927 L 28.707,44.973 28.463,44.949 28.268,44.9 28.049,44.827 27.854,44.729 27.659,44.631 27.488,44.533 27.341,44.411 27.195,44.265 27.049,44.118 26.927,43.972 26.829,43.801 26.732,43.63 26.683,43.459 26.634,43.263 26.585,43.092 v -0.195 l 0.025,-0.196 0.024,-0.195 0.049,-0.196 0.097,-0.195 0.098,-0.171 0.146,-0.195 0.147,-0.196 0.195,-0.171 0.219,-0.171 0.244,-0.171 0.244,-0.146 0.244,-0.123 0.268,-0.122 0.293,-0.122 0.293,-0.122 0.317,-0.122 0.317,-0.122 0.341,-0.098 0.683,-0.244 0.708,-0.22 0.341,-0.122 0.366,-0.147 0.341,-0.122 0.366,-0.147 0.342,-0.146 0.341,-0.147 0.342,-0.171 0.317,-0.171 0.317,-0.195 0.292,-0.22 0.293,-0.195 0.268,-0.245 0.269,-0.244 0.244,-0.269 0.219,-0.268 0.22,-0.318 0.17,-0.318 0.171,-0.342 0.146,-0.342 0.098,-0.39 0.146,-0.758 0.122,-0.708 0.049,-0.709 0.024,-0.684 -0.048,-0.635 -0.073,-0.61 -0.147,-0.611 -0.146,-0.562 -0.22,-0.537 L 36.463,28.777 36.195,28.288 35.878,27.849 35.561,27.433 35.195,27.067 34.78,26.701 34.366,26.407 33.927,26.114 33.463,25.87 33,25.65 32.488,25.479 32,25.357 31.463,25.235 30.927,25.186 30.39,25.162 h -0.536 l -0.561,0.048 -0.537,0.098 -0.561,0.122 -0.561,0.171 -0.536,0.22 -0.561,0.244 -0.537,0.318 -0.073,0.073 v -1.197 h -5.073 v 8.037 h 4.097 v 0 h 0.756 v -0.049 -0.048 l 0.025,-0.049 v -0.049 0 0 -0.049 l 0.024,-0.024 v -0.049 -0.025 0 0 l 0.024,-0.073 0.025,-0.049 v -0.024 0 -0.049 l 0.024,-0.073 v 0 0 l 0.025,-0.074 0.024,-0.049 v 0 -0.024 l 0.024,-0.049 v -0.049 -0.024 0 L 26,32.221 l 0.098,-0.219 0.097,-0.171 0.098,-0.171 0.122,-0.171 0.122,-0.123 0.122,-0.146 0.121,-0.122 0.147,-0.098 0.146,-0.098 0.147,-0.097 0.146,-0.074 0.146,-0.073 0.147,-0.049 0.146,-0.049 0.171,-0.049 0.146,-0.024 0.146,-0.024 0.171,-0.025 h 0.146 0.147 0.146 l 0.146,0.025 0.147,0.024 0.146,0.024 0.122,0.025 0.122,0.049 0.122,0.049 0.122,0.024 0.097,0.073 0.098,0.049 0.098,0.073 0.073,0.049 0.073,0.074 0.073,0.073 0.073,0.073 0.073,0.073 0.049,0.074 0.049,0.097 0.049,0.074 0.049,0.097 0.048,0.098 0.025,0.098 0.024,0.073 0.049,0.098 v 0.098 l 0.024,0.097 0.025,0.122 v 0.098 0.098 0.098 l -0.025,0.097 v 0.098 l -0.024,0.098 -0.025,0.097 -0.024,0.098 -0.049,0.098 -0.024,0.098 -0.049,0.097 -0.049,0.074 -0.073,0.097 -0.049,0.074 -0.073,0.073 -0.073,0.098 -0.049,0.024 -0.048,0.049 -0.074,0.049 -0.073,0.073 -0.097,0.049 -0.098,0.073 -0.122,0.049 -0.097,0.073 -0.122,0.074 -0.147,0.073 -0.122,0.073 -0.146,0.049 -0.171,0.073 -0.146,0.074 -0.171,0.048 -0.171,0.074 -0.512,0.171 -0.512,0.171 -0.293,0.097 -0.268,0.098 -0.268,0.098 -0.293,0.098 -0.293,0.122 -0.292,0.097 -0.293,0.123 -0.293,0.146 -0.268,0.122 -0.293,0.147 -0.292,0.146 -0.269,0.171 -0.268,0.171 -0.268,0.171 -0.268,0.196 -0.244,0.195 -0.244,0.22 -0.244,0.22 -0.22,0.244 -0.219,0.245 -0.22,0.268 -0.195,0.269 -0.171,0.293 -0.146,0.318 -0.146,0.317 -0.147,0.342 -0.097,0.367 -0.098,0.366 -0.097,0.464 -0.073,0.464 -0.049,0.44 -0.025,0.415 v 0.44 l 0.025,0.415 0.049,0.391 0.048,0.391 0.073,0.367 0.122,0.39 0.098,0.342 0.146,0.342 0.171,0.318 0.171,0.318 0.171,0.317 0.219,0.269 0.22,0.293 0.243,0.244 0.244,0.245 0.269,0.244 0.268,0.22 0.293,0.195 0.317,0.171 0.317,0.171 0.317,0.147 0.341,0.122 0.342,0.122 0.366,0.098 0.365,0.073 0.366,0.073 0.391,0.025 0.39,0.024 0.317,0.025 h 0.341 0.171 0.171 0.195 l 0.171,-0.025 h 0.17 l 0.196,-0.024 0.17,-0.025 0.195,-0.024 0.171,-0.025 0.171,-0.024 0.195,-0.049 0.171,-0.049 0.219,-0.073 0.244,-0.073 0.122,-0.049 0.098,-0.049 0.122,-0.049 0.122,-0.049 0.097,-0.049 0.122,-0.073 0.098,-0.049 0.097,-0.073 0.098,-0.073 0.097,-0.074 0.098,-0.073 0.073,-0.073 v 0 h 0.024 z"
             style="fill:#ffffff;fill-opacity:1;fill-rule:evenodd;stroke:none"
             id="path57"
             inkscape:connector-curvature="0" />
        </g>
      </g>
    </g>
  </g>
</svg>
